<svg width="1031" height="1136" viewBox="0 0 1031 1136" fill="none" xmlns="http://www.w3.org/2000/svg">
<rect x="6" y="112" width="1024" height="1024" fill="black"/>
<path d="M363.067 742.291C363.067 752.669 361.244 762.345 357.598 771.32C354.232 780.295 349.184 788.008 342.453 794.458C334.88 801.751 325.204 807.5 313.424 811.707C301.645 815.634 287.761 817.597 271.775 817.597C259.153 817.597 246.813 815.914 234.753 812.549C222.692 809.183 212.035 803.433 202.779 795.3C193.243 787.447 185.53 776.789 179.64 763.326C173.751 749.583 170.806 732.615 170.806 712.421H53.4294C53.4294 746.078 58.618 774.966 68.9954 799.086C79.3728 822.926 93.256 842.699 110.645 858.405C127.754 874.112 147.527 886.172 169.964 894.586C192.402 902.72 215.541 907.908 239.38 910.152V992.61H306.272V910.152C332.636 907.628 356.476 902.159 377.792 893.745C399.108 885.05 417.338 873.551 432.483 859.247C447.629 844.943 459.268 827.975 467.402 808.342C475.535 788.428 479.602 766.131 479.602 741.45C479.602 714.525 475.115 691.246 466.14 671.613C457.445 651.7 444.964 634.17 428.697 619.025C412.149 604.16 392.376 591.118 369.378 579.9C346.379 568.4 320.716 557.322 292.389 546.664C273.598 539.933 257.891 533.342 245.27 526.891C232.649 520.16 222.552 513.148 214.98 505.856C207.126 498.564 201.517 490.71 198.151 482.296C195.066 473.602 193.524 463.785 193.524 452.847C193.524 441.909 195.066 431.812 198.151 422.556C201.517 413.301 206.566 405.167 213.297 398.156C220.028 391.424 228.582 386.236 238.96 382.59C249.618 378.663 262.098 376.7 276.402 376.7C288.743 376.7 299.962 378.663 310.059 382.59C320.436 386.516 329.271 392.266 336.563 399.838C344.697 408.533 351.007 419.611 355.495 433.074C359.982 446.537 362.226 462.243 362.226 480.193H479.181C479.181 452.146 475.255 426.904 467.402 404.466C459.829 381.748 449.031 361.975 435.008 345.147C420.704 328.599 403.455 315.137 383.261 304.759C363.067 294.382 340.349 287.511 315.107 284.145V192.852H247.794V283.303C221.991 285.828 198.572 291.577 177.537 300.552C156.502 309.527 138.552 321.307 123.687 335.891C108.822 350.476 97.3228 367.725 89.1892 387.638C81.0556 407.271 76.9888 429.007 76.9888 452.847C76.9888 480.053 81.4763 503.612 90.4513 523.525C99.4263 543.158 112.188 560.407 128.735 575.272C145.003 590.137 164.776 603.179 188.055 614.397C211.333 625.616 237.137 636.274 265.464 646.371C283.134 652.541 298.139 658.852 310.479 665.302C323.1 671.473 333.338 678.344 341.191 685.917C348.763 693.49 354.232 701.904 357.598 711.159C361.244 720.134 363.067 730.511 363.067 742.291Z" fill="white"/>
<path d="M958.946 994.293V903H575.264V994.293H958.946Z" fill="white"/>
</svg>
