<svg width="373" height="237" viewBox="0 0 373 237" fill="none" xmlns="http://www.w3.org/2000/svg">
<path d="M91.2433 0V6.68547C88.5114 7.79971 86.417 9.91678 84.9601 13.0367C83.5031 16.1565 82.5014 20.9478 81.955 27.4104C81.4997 33.8731 81.2721 43.0099 81.2721 54.8209V237C80.0883 236.554 78.8134 236.331 77.4475 236.331C76.0816 236.331 74.6246 236.554 73.0766 237L13.1128 64.1805V176.496C13.1128 190.09 13.386 200.564 13.9324 207.918C14.4787 215.049 15.708 220.175 17.6203 223.295C19.5326 226.415 22.5376 228.643 26.6354 229.98V236.666C24.9052 236.22 22.5832 235.997 19.6692 235.997C16.8463 235.774 14.16 235.663 11.6103 235.663C9.60695 235.663 7.51255 235.774 5.32708 235.997C3.23267 235.997 1.45698 236.22 0 236.666V229.98C2.91396 228.643 5.05389 226.526 6.41981 223.629C7.87679 220.509 8.83293 215.718 9.28824 209.255C9.74354 202.57 9.9712 193.433 9.9712 181.845V35.433C9.9712 27.1876 9.74354 21.1706 9.28824 17.3822C8.83293 13.3709 7.87679 10.6968 6.41981 9.35966C4.96283 7.79971 2.8229 6.90831 0 6.68547V0C1.45698 0.222846 3.23267 0.445692 5.32708 0.668539C7.51255 0.891385 9.60695 1.00281 11.6103 1.00281C13.8868 1.00281 16.0723 0.891385 18.1667 0.668539C20.2611 0.445692 22.1734 0.222846 23.9036 0L78.1305 151.76V60.1693C78.1305 46.5755 77.8573 36.213 77.3109 29.0818C76.8556 21.7278 75.6718 16.4908 73.7595 13.3709C71.9383 10.0282 68.8878 7.79971 64.6079 6.68547V0C66.4291 0.222846 68.7512 0.445692 71.5741 0.668539C74.488 0.891385 77.1743 1.00281 79.633 1.00281C81.8185 1.00281 83.9584 0.891385 86.0528 0.668539C88.1472 0.445692 89.8774 0.222846 91.2433 0Z" fill="#1C1C19"/>
<path d="M173.822 0C173.457 10.4739 173.184 20.6135 173.002 30.4189C172.911 40.2243 172.865 47.6897 172.865 52.8152C172.865 57.2722 172.911 61.6178 173.002 65.8519C173.093 70.086 173.184 73.5402 173.275 76.2144H170.134C169.132 58.8321 167.493 45.1269 165.216 35.0987C163.031 25.0705 160.299 18.0508 157.021 14.0395C153.834 9.80535 150.282 7.68827 146.367 7.68827H142.679C140.22 7.68827 138.308 8.2454 136.942 9.35966C135.667 10.251 134.802 12.2567 134.347 15.3766C133.982 18.4965 133.8 23.3992 133.8 30.0846V206.581C133.8 213.044 133.982 217.946 134.347 221.289C134.802 224.409 135.667 226.526 136.942 227.64C138.308 228.532 140.22 228.977 142.679 228.977H148.279C151.83 228.977 155.2 226.749 158.387 222.292C161.665 217.612 164.579 209.812 167.129 198.893C169.678 187.75 171.591 172.708 172.865 153.766H176.007C175.734 161.343 175.597 171.148 175.597 183.182C175.597 188.53 175.643 196.107 175.734 205.913C175.825 215.718 176.098 225.969 176.553 236.666C171.909 236.22 166.673 235.997 160.845 235.997C155.017 235.774 149.827 235.663 145.274 235.663C142.906 235.663 139.901 235.663 136.259 235.663C132.616 235.663 128.655 235.774 124.375 235.997C120.095 235.997 115.77 236.109 111.399 236.331C107.028 236.331 102.93 236.443 99.1058 236.666V229.98C101.929 229.535 104.023 228.643 105.389 227.306C106.846 225.969 107.802 223.295 108.257 219.283C108.804 215.272 109.077 209.255 109.077 201.233V35.433C109.077 27.1876 108.804 21.1706 108.257 17.3822C107.802 13.3709 106.846 10.6968 105.389 9.35966C104.023 7.79971 101.929 6.90831 99.1058 6.68547V0C103.021 0.222846 107.119 0.445692 111.399 0.668539C115.77 0.668539 120.05 0.779962 124.239 1.00281C128.519 1.00281 132.48 1.00281 136.122 1.00281C139.856 1.00281 142.906 1.00281 145.274 1.00281C149.463 1.00281 154.198 1.00281 159.479 1.00281C164.852 0.779962 169.633 0.445692 173.822 0ZM153.196 114.322C153.196 114.322 153.196 115.436 153.196 117.664C153.196 119.893 153.196 121.007 153.196 121.007H129.702C129.702 121.007 129.702 119.893 129.702 117.664C129.702 115.436 129.702 114.322 129.702 114.322H153.196ZM157.157 70.1975C156.793 82.8999 156.611 92.5938 156.611 99.2793C156.702 105.965 156.748 112.093 156.748 117.664C156.748 123.236 156.793 129.364 156.884 136.049C156.975 142.735 157.203 152.429 157.567 165.131H154.425C153.97 157.109 153.014 149.755 151.557 143.069C150.1 136.384 148.142 131.035 145.684 127.024C143.225 123.013 140.22 121.007 136.669 121.007V114.322C139.309 114.322 141.631 112.984 143.635 110.31C145.638 107.413 147.323 103.736 148.689 99.2793C150.146 94.8223 151.329 90.031 152.24 84.9055C153.151 79.78 153.743 74.8773 154.016 70.1975H157.157Z" fill="#1C1C19"/>
<path d="M261.459 0C261.095 10.4739 260.822 20.6135 260.639 30.4189C260.548 40.2243 260.503 47.6897 260.503 52.8152C260.503 57.2722 260.548 61.6178 260.639 65.8519C260.731 70.086 260.822 73.5402 260.913 76.2144H257.771C256.769 58.8321 255.13 45.1269 252.854 35.0987C250.668 25.0705 247.936 18.0508 244.658 14.0395C241.471 9.80535 237.92 7.68827 234.004 7.68827H230.316C227.857 7.68827 225.945 8.2454 224.579 9.35966C223.304 10.251 222.439 12.2567 221.984 15.3766C221.62 18.4965 221.438 23.3992 221.438 30.0846V206.581C221.438 213.044 221.62 217.946 221.984 221.289C222.439 224.409 223.304 226.526 224.579 227.64C225.945 228.532 227.857 228.977 230.316 228.977H235.916C239.468 228.977 242.837 226.749 246.024 222.292C249.302 217.612 252.216 209.812 254.766 198.893C257.316 187.75 259.228 172.708 260.503 153.766H263.644C263.371 161.343 263.235 171.148 263.235 183.182C263.235 188.53 263.28 196.107 263.371 205.913C263.462 215.718 263.736 225.969 264.191 236.666C259.547 236.22 254.311 235.997 248.483 235.997C242.655 235.774 237.464 235.663 232.911 235.663C230.544 235.663 227.539 235.663 223.896 235.663C220.254 235.663 216.293 235.774 212.013 235.997C207.733 235.997 203.408 236.109 199.037 236.331C194.666 236.331 190.568 236.443 186.743 236.666V229.98C189.566 229.535 191.661 228.643 193.027 227.306C194.484 225.969 195.44 223.295 195.895 219.283C196.441 215.272 196.715 209.255 196.715 201.233V35.433C196.715 27.1876 196.441 21.1706 195.895 17.3822C195.44 13.3709 194.484 10.6968 193.027 9.35966C191.661 7.79971 189.566 6.90831 186.743 6.68547V0C190.659 0.222846 194.757 0.445692 199.037 0.668539C203.408 0.668539 207.687 0.779962 211.876 1.00281C216.156 1.00281 220.117 1.00281 223.76 1.00281C227.493 1.00281 230.544 1.00281 232.911 1.00281C237.1 1.00281 241.835 1.00281 247.117 1.00281C252.489 0.779962 257.27 0.445692 261.459 0ZM240.834 114.322C240.834 114.322 240.834 115.436 240.834 117.664C240.834 119.893 240.834 121.007 240.834 121.007H217.34C217.34 121.007 217.34 119.893 217.34 117.664C217.34 115.436 217.34 114.322 217.34 114.322H240.834ZM244.795 70.1975C244.431 82.8999 244.248 92.5938 244.248 99.2793C244.339 105.965 244.385 112.093 244.385 117.664C244.385 123.236 244.431 129.364 244.522 136.049C244.613 142.735 244.84 152.429 245.205 165.131H242.063C241.608 157.109 240.652 149.755 239.195 143.069C237.738 136.384 235.78 131.035 233.321 127.024C230.862 123.013 227.857 121.007 224.306 121.007V114.322C226.947 114.322 229.269 112.984 231.272 110.31C233.276 107.413 234.96 103.736 236.326 99.2793C237.783 94.8223 238.967 90.031 239.878 84.9055C240.788 79.78 241.38 74.8773 241.653 70.1975H244.795Z" fill="#1C1C19"/>
<path d="M318.227 0C336.803 0 350.553 10.0282 359.477 30.0846C368.492 49.9182 373 78.4429 373 115.659C373 139.949 370.769 161.231 366.307 179.505C361.936 197.556 355.562 211.595 347.184 221.623C338.807 231.652 328.744 236.666 316.997 236.666C315.54 236.666 313.628 236.554 311.261 236.331C308.893 236.109 306.389 235.997 303.748 235.997C301.198 235.774 298.876 235.663 296.782 235.663C292.502 235.663 288.313 235.774 284.215 235.997C280.118 235.997 276.839 236.22 274.381 236.666V229.98C277.204 229.535 279.298 228.643 280.664 227.306C282.121 225.969 283.077 223.295 283.532 219.283C284.079 215.272 284.352 209.255 284.352 201.233V35.433C284.352 27.1876 284.079 21.1706 283.532 17.3822C283.077 13.3709 282.121 10.6968 280.664 9.35966C279.298 7.79971 277.204 6.90831 274.381 6.68547V0C276.839 0.222846 280.118 0.557115 284.215 1.00281C288.313 1.22565 292.411 1.22565 296.509 1.00281C299.787 0.779962 303.52 0.557116 307.709 0.334269C311.898 0.111423 315.404 0 318.227 0ZM319.183 6.01691C314.994 6.01691 312.262 7.91113 310.987 11.6996C309.713 15.488 309.075 23.1763 309.075 34.7644V201.901C309.075 213.489 309.713 221.178 310.987 224.966C312.353 228.755 315.131 230.649 319.319 230.649C326.24 230.649 331.749 226.303 335.847 217.612C339.945 208.698 342.859 195.773 344.589 178.836C346.41 161.9 347.321 141.286 347.321 116.996C347.321 92.0367 346.365 71.4231 344.452 55.1551C342.54 38.6643 339.49 26.4076 335.301 18.385C331.203 10.1396 325.83 6.01691 319.183 6.01691Z" fill="#1C1C19"/>
</svg>
