<svg width="319" height="91" viewBox="0 0 319 91" fill="none" xmlns="http://www.w3.org/2000/svg">
<path d="M6.125 88.4062C8.5625 81.3438 10.1562 71.8906 10.9062 60.0469L1.29688 56.5781L11.375 46.9688C11.375 45.5312 11.375 42.4062 11.375 37.5938C11.375 32.7812 11.1719 25.2344 10.7656 14.9531C9.14062 14.2031 7.48438 13.4531 5.79688 12.7031C4.14062 11.9219 2.5 11.125 0.875 10.3125L8.9375 0.046875C17.5 2.54687 23.6719 4.39063 27.4531 5.57812C27.3594 6.57812 27.2812 7.57812 27.2188 8.57812C27.1562 9.57812 27.0781 10.5469 26.9844 11.4844L41.2344 0.046875C51.8594 8.07812 57.1719 17.625 57.1719 28.6875C57.1719 29.875 57.1094 31.0625 56.9844 32.25C55.7344 44.875 50.1719 57.6406 40.2969 70.5469L25.25 65.1562C25.5312 70.1875 26.1406 73.5469 27.0781 75.2344C21.9531 78.3906 14.9688 82.7812 6.125 88.4062ZM40.7656 56.4844C44.6406 56.4844 46.5781 53.5312 46.5781 47.625C46.5781 42.5938 45.6094 37.4219 43.6719 32.1094C41.7344 26.7969 39.1094 22.625 35.7969 19.5938C34.4844 18.375 33.2031 17.7656 31.9531 17.7656C30.0156 17.7656 28.125 19.1875 26.2812 22.0312C25.625 32.3125 25.2188 41.4062 25.0625 49.3125L40.4844 56.4844C40.5781 56.4844 40.6719 56.4844 40.7656 56.4844ZM63.5938 34.4531C70.875 29.5781 76.9219 25.1562 81.7344 21.1875C84.1406 22.2188 86.5625 24.0625 89 26.7188C94.2812 32.375 97.4062 38.2812 98.375 44.4375C98.5 45.1562 98.5625 45.8438 98.5625 46.5C98.5625 48.5625 97.9844 50.2344 96.8281 51.5156L81.2656 71.3438L61.2031 61.4531C63.3281 57.0469 64.3906 53.2344 64.3906 50.0156L64.2969 39.0938C64.2031 36.8438 63.9688 35.2969 63.5938 34.4531ZM76.2031 32.8125L76.0625 52.7344C76.3438 54.2656 77.4219 55.4688 79.2969 56.3438C81.1719 57.1875 82.4062 57.6094 83 57.6094C83.625 57.6094 84.0469 57.5781 84.2656 57.5156C87.0156 56.8906 88.3906 55.1562 88.3906 52.3125C88.3906 51.6562 88.3125 50.9219 88.1562 50.1094C87.0938 44.9531 85.5469 41.0625 83.5156 38.4375C81.5156 35.7812 79.0781 33.9062 76.2031 32.8125ZM118.859 28.2188L124.953 22.0312C131.234 26.375 135.484 30.7812 137.703 35.25L130.203 45.2812C129.359 42.8125 128.203 40.6406 126.734 38.7656C125.297 36.8906 122.891 34.9688 119.516 33L117.969 35.1094L117.078 51.0938C116.984 52.7188 118.016 54.4062 120.172 56.1562C122.328 57.9062 124 59.0312 125.188 59.5312L117.406 70.5469L102.875 59.25C104.625 57.1562 105.531 55 105.594 52.7812L105.5 34.7812C105.406 33.2812 104.25 31.7812 102.031 30.2812L109.109 21.375L118.859 28.2188ZM163.484 59.1094L153.031 70.5469C150.75 68.7969 148.453 67.0469 146.141 65.2969C143.828 63.5156 141.547 61.75 139.297 60C142.703 57 144.438 53.8125 144.5 50.4375L144.688 30.9844H140.609V27.2812C144.859 21.1875 150.234 13.2969 156.734 3.60938L159.125 3.98438C158.406 7.39062 157.766 10.2031 157.203 12.4219C156.672 14.6094 156.344 17.3438 156.219 20.625H164.469V30.75H156.078L155.984 50.7188C155.984 53.0625 156.188 54.3906 156.594 54.7031C157.031 55.0156 159.328 56.4844 163.484 59.1094ZM193.062 15.6562C190.719 14.25 187.969 13.3594 184.812 12.9844C184.25 13.8281 183.422 15.0312 182.328 16.5938C182.922 17.875 183.375 19.4531 183.688 21.3281H191.328V33.1406H184.391C184.391 36.0781 184.328 39.0625 184.203 42.0938C184.109 45.0938 184.031 47.9062 183.969 50.5312C183.812 56.4688 179.516 69.7969 171.078 90.5156C169.922 89.3594 168.641 88.5938 167.234 88.2188C169.391 80.5312 170.672 72.2656 171.078 63.4219C171.516 54.5469 171.734 47.1719 171.734 41.2969C171.734 35.4219 171.672 30.1719 171.547 25.5469C171.484 23.0156 170.219 20.75 167.75 18.75C170.438 15.9062 172.891 13.0938 175.109 10.3125C177.359 7.53125 179.828 4.70312 182.516 1.82812C185.422 2.17187 188.516 2.67188 191.797 3.32812C195.109 3.98438 198.344 4.625 201.5 5.25C200.094 7.03125 198.688 8.78125 197.281 10.5C195.875 12.2188 194.469 13.9375 193.062 15.6562ZM195.406 34.4531C202.688 29.5781 208.734 25.1562 213.547 21.1875C215.953 22.2188 218.375 24.0625 220.812 26.7188C226.094 32.375 229.219 38.2812 230.188 44.4375C230.312 45.1562 230.375 45.8438 230.375 46.5C230.375 48.5625 229.797 50.2344 228.641 51.5156L213.078 71.3438L193.016 61.4531C195.141 57.0469 196.203 53.2344 196.203 50.0156L196.109 39.0938C196.016 36.8438 195.781 35.2969 195.406 34.4531ZM208.016 32.8125L207.875 52.7344C208.156 54.2656 209.234 55.4688 211.109 56.3438C212.984 57.1875 214.219 57.6094 214.812 57.6094C215.438 57.6094 215.859 57.5781 216.078 57.5156C218.828 56.8906 220.203 55.1562 220.203 52.3125C220.203 51.6562 220.125 50.9219 219.969 50.1094C218.906 44.9531 217.359 41.0625 215.328 38.4375C213.328 35.7812 210.891 33.9062 208.016 32.8125ZM257.328 59.8594C251.953 65.7969 248.484 69.6094 246.922 71.2969C244.609 69.5469 242.297 67.7969 239.984 66.0469C237.703 64.2656 235.422 62.5 233.141 60.75C235.266 58.9062 236.656 57.2031 237.312 55.6406C237.969 54.0781 238.312 52.5938 238.344 51.1875L238.578 22.8281C238.578 20.7969 238.484 18.375 238.297 15.5625C238.141 12.75 237.453 10.375 236.234 8.4375L251.703 0.046875C250.859 3.79688 250.359 7.6875 250.203 11.7188C250.078 15.75 250.016 19.8438 250.016 24L249.828 51.5156C249.828 53.8594 250.047 55.1875 250.484 55.5C250.922 55.8125 253.203 57.2656 257.328 59.8594ZM259.578 30.2812L266.656 21.375L277.156 26.2969C276.781 27.5781 276.375 28.8281 275.938 30.0469C275.5 31.2656 275.281 32.5156 275.281 33.7969L274.625 52.8281C274.625 52.9844 274.625 53.125 274.625 53.25C274.625 54.7188 275.094 55.9375 276.031 56.9062C276.969 57.875 278.047 58.6094 279.266 59.1094L269.891 70.5469L259.953 62.5312C261.766 60.375 262.672 58.2188 262.672 56.0625L263 34.7812C263 33.2812 261.859 31.7812 259.578 30.2812ZM260.984 20.9531L264.734 2.4375L278.656 8.01562L260.984 20.9531ZM284 34.4531C291.281 29.5781 297.328 25.1562 302.141 21.1875C304.547 22.2188 306.969 24.0625 309.406 26.7188C314.688 32.375 317.812 38.2812 318.781 44.4375C318.906 45.1562 318.969 45.8438 318.969 46.5C318.969 48.5625 318.391 50.2344 317.234 51.5156L301.672 71.3438L281.609 61.4531C283.734 57.0469 284.797 53.2344 284.797 50.0156L284.703 39.0938C284.609 36.8438 284.375 35.2969 284 34.4531ZM296.609 32.8125L296.469 52.7344C296.75 54.2656 297.828 55.4688 299.703 56.3438C301.578 57.1875 302.812 57.6094 303.406 57.6094C304.031 57.6094 304.453 57.5781 304.672 57.5156C307.422 56.8906 308.797 55.1562 308.797 52.3125C308.797 51.6562 308.719 50.9219 308.562 50.1094C307.5 44.9531 305.953 41.0625 303.922 38.4375C301.922 35.7812 299.484 33.9062 296.609 32.8125Z" fill="#1C1C19"/>
</svg>
