<svg width="420" height="88" viewBox="0 0 420 88" fill="none" xmlns="http://www.w3.org/2000/svg">
<path d="M0.21875 61.8281L8.375 53.2969C5.4375 49.3594 3.35938 44.9062 2.14062 39.9375C5.89062 33.75 11.4375 27.5625 18.7812 21.375C24.5625 22.9688 31.1875 24.4688 38.6562 25.875L39.7812 25.5938L30.9688 34.6406L38.6562 53.9062C32.8438 58.25 27.5 63.7969 22.625 70.5469C16.5312 66.9531 9.0625 64.0469 0.21875 61.8281ZM25.0156 58.5938C28.1719 58.5938 29.75 57.4688 29.75 55.2188C29.75 53.25 27.5 49.125 23 42.8438L11.75 54.4219C16.5938 57.2031 21.0156 58.5938 25.0156 58.5938ZM17.6094 43.6875L26.7031 34.3125C21.2656 32.8438 17.625 32.1094 15.7812 32.1094C13.9375 32.1094 12.9062 32.2969 12.6875 32.6719C12.5 33.0156 12.4062 33.3438 12.4062 33.6562C12.4062 35.4375 14.1406 38.7812 17.6094 43.6875ZM42.8281 36.4219L61.1094 21.5625L81.8281 31.2656C79.3906 33.3906 78.1562 35.7812 78.125 38.4375L77.9375 53.9531C77.9375 55.0156 78.4844 56.2188 79.5781 57.5625C80.7031 58.9062 81.7656 59.9844 82.7656 60.7969L73.2969 70.5469L66.0312 63.0938C64.2812 64.5 62.5156 65.7969 60.7344 66.9844C58.9531 68.1406 57.3594 69.3594 55.9531 70.6406C51.2656 68.8906 46.8906 66.1875 42.8281 62.5312C43.9844 61.0625 44.6562 58.9219 44.8438 56.1094L44.7031 41.9531C44.7031 41.8281 44.7031 41.7031 44.7031 41.5781C44.7031 39.7344 44.0781 38.0156 42.8281 36.4219ZM58.9062 32.8125C57.0938 35.5312 56.1875 37.9531 56.1875 40.0781V51.5625C56.1875 53.9062 56.6094 55.5781 57.4531 56.5781C58.1719 57.6094 58.8281 58.5312 59.4219 59.3438C60.0469 60.1562 61.0312 60.75 62.375 61.125L66.2188 58.3594V36.7969L58.9062 32.8125ZM87.4531 36.4219L105.734 21.5625L125.375 31.2656C122.969 33.3906 121.766 35.7812 121.766 38.4375L121.578 53.9531C121.547 55.0156 122.469 57.125 124.344 60.2812C126.219 63.4375 127.625 65.4375 128.562 66.2812L110.047 87.5156C102.734 85.8906 94.6562 84.7656 85.8125 84.1406L97.9062 68.9062C93.875 67.25 90.4219 65.125 87.5469 62.5312C88.5781 61.1562 89.2344 59.0156 89.5156 56.1094L89.4219 41.9531C89.4531 39.8906 88.7969 38.0469 87.4531 36.4219ZM117.172 72.7031C113.547 68.5781 111.578 63.5469 111.266 57.6094L98.4219 74.0156C103.359 74.0156 108.656 74.7969 114.312 76.3594L117.172 72.7031ZM110.984 52.2656L110.844 36.7969L102.547 32.8125C100.734 35.5312 99.8281 37.9531 99.8281 40.0781V51.5625C99.8281 53.875 100.172 55.4844 100.859 56.3906C101.578 57.2969 102.203 58.0625 102.734 58.6875C103.266 59.2812 103.938 59.7812 104.75 60.1875L110.984 52.2656ZM131.516 36.4219L149.797 21.5625L170.516 31.2656C168.078 33.3906 166.844 35.7812 166.812 38.4375L166.625 53.9531C166.625 55.0156 167.172 56.2188 168.266 57.5625C169.391 58.9062 170.453 59.9844 171.453 60.7969L161.984 70.5469L154.719 63.0938C152.969 64.5 151.203 65.7969 149.422 66.9844C147.641 68.1406 146.047 69.3594 144.641 70.6406C139.953 68.8906 135.578 66.1875 131.516 62.5312C132.672 61.0625 133.344 58.9219 133.531 56.1094L133.391 41.9531C133.391 41.8281 133.391 41.7031 133.391 41.5781C133.391 39.7344 132.766 38.0156 131.516 36.4219ZM147.594 32.8125C145.781 35.5312 144.875 37.9531 144.875 40.0781V51.5625C144.875 53.9062 145.297 55.5781 146.141 56.5781C146.859 57.6094 147.516 58.5312 148.109 59.3438C148.734 60.1562 149.719 60.75 151.062 61.125L154.906 58.3594V36.7969L147.594 32.8125ZM191.516 28.2188L197.609 22.0312C203.891 26.375 208.141 30.7812 210.359 35.25L202.859 45.2812C202.016 42.8125 200.859 40.6406 199.391 38.7656C197.953 36.8906 195.547 34.9688 192.172 33L190.625 35.1094L189.734 51.0938C189.641 52.7188 190.672 54.4062 192.828 56.1562C194.984 57.9062 196.656 59.0312 197.844 59.5312L190.062 70.5469L175.531 59.25C177.281 57.1562 178.188 55 178.25 52.7812L178.156 34.7812C178.062 33.2812 176.906 31.7812 174.688 30.2812L181.766 21.375L191.516 28.2188ZM258.359 21.0469C254.797 18.0156 251.172 15.9062 247.484 14.7188C247.266 17.6562 247.156 21.3594 247.156 25.8281C247.156 30.2969 247.641 35.4531 248.609 41.2969L233.797 47.9062C236.297 50.5 239.625 52.4531 243.781 53.7656C246.062 54.4844 248.516 54.8438 251.141 54.8438C253.797 54.8438 256.516 54.6094 259.297 54.1406L251.141 71.2969C242.047 68.3281 234.859 65.4531 229.578 62.6719C224.297 59.8594 220.344 56.5625 217.719 52.7812C215.125 49 213.562 44.4375 213.031 39.0938C212.688 35.75 212.516 32.3281 212.516 28.8281C212.516 25.2969 212.578 22.0312 212.703 19.0312L251.234 0.046875L262.484 8.20312L258.359 21.0469ZM234.359 15.1875C229.203 17.6562 226.625 22.1875 226.625 28.7812C226.625 34.75 228.094 39.9844 231.031 44.4844C233.031 43.1719 234.266 40.5625 234.734 36.6562C234.922 35.125 235.016 32.75 235.016 29.5312C235.016 26.2812 234.797 21.5 234.359 15.1875ZM265.438 34.4531C272.719 29.5781 278.766 25.1562 283.578 21.1875C285.984 22.2188 288.406 24.0625 290.844 26.7188C296.125 32.375 299.25 38.2812 300.219 44.4375C300.344 45.1562 300.406 45.8438 300.406 46.5C300.406 48.5625 299.828 50.2344 298.672 51.5156L283.109 71.3438L263.047 61.4531C265.172 57.0469 266.234 53.2344 266.234 50.0156L266.141 39.0938C266.047 36.8438 265.812 35.2969 265.438 34.4531ZM278.047 32.8125L277.906 52.7344C278.188 54.2656 279.266 55.4688 281.141 56.3438C283.016 57.1875 284.25 57.6094 284.844 57.6094C285.469 57.6094 285.891 57.5781 286.109 57.5156C288.859 56.8906 290.234 55.1562 290.234 52.3125C290.234 51.6562 290.156 50.9219 290 50.1094C288.938 44.9531 287.391 41.0625 285.359 38.4375C283.359 35.7812 280.922 33.9062 278.047 32.8125ZM318.922 23.9531C316.516 19.8594 313.344 15.5469 309.406 11.0156L321.828 4.5C333.078 18.2188 339.328 34.4062 340.578 53.0625C336.672 56 333.359 58.7188 330.641 61.2188C327.953 63.7188 325.734 66.8281 323.984 70.5469C320.547 69.0156 317.109 67.4688 313.672 65.9062C310.266 64.3125 307.125 62.2031 304.25 59.5781C304.125 54.8594 304.031 50.125 303.969 45.375C303.906 40.625 303.844 35.875 303.781 31.125C311.281 27.6875 316.328 25.2969 318.922 23.9531ZM328.531 58.5938C328.531 58.2812 328.531 57.9531 328.531 57.6094C328.531 47.1094 326.062 37.125 321.125 27.6562C317.719 29.2812 315.688 32.2188 315.031 36.4688C314.812 38.125 314.703 40.2344 314.703 42.7969C314.703 45.3594 315.016 48.6719 315.641 52.7344C320.016 56.2031 324.312 58.1562 328.531 58.5938ZM366.031 70.5469L343.578 61.5938C344.422 56.9062 344.844 52.0312 344.844 46.9688C344.844 41.875 344.359 36.5625 343.391 31.0312L359.562 21.5156V21.375L359.656 21.4219H359.703L377.938 34.5L358.953 54.4688C360.234 56 361.656 56.8438 363.219 57C364.781 57.1562 366.062 57.2344 367.062 57.2344C368.094 57.2344 369.297 57.1875 370.672 57.0938C372.078 56.9688 373.797 56.875 375.828 56.8125C374.172 59.125 372.531 61.4219 370.906 63.7031C369.281 65.9844 367.656 68.2656 366.031 70.5469ZM358.25 34.0312C356.438 34.0312 355.531 36.5 355.531 41.4375C355.531 44.25 356 47.0625 356.938 49.875C356.938 50.1562 356.984 50.3906 357.078 50.5781L364.625 42.6094C365.156 42.0469 365.422 41.4844 365.422 40.9219C365.422 40.3594 365.141 39.6406 364.578 38.7656C364.047 37.8906 363.5 37.1719 362.938 36.6094C360.969 34.8906 359.406 34.0312 358.25 34.0312ZM380.094 61.8281L388.25 53.2969C385.312 49.3594 383.234 44.9062 382.016 39.9375C385.766 33.75 391.312 27.5625 398.656 21.375C404.438 22.9688 411.062 24.4688 418.531 25.875L419.656 25.5938L410.844 34.6406L418.531 53.9062C412.719 58.25 407.375 63.7969 402.5 70.5469C396.406 66.9531 388.938 64.0469 380.094 61.8281ZM404.891 58.5938C408.047 58.5938 409.625 57.4688 409.625 55.2188C409.625 53.25 407.375 49.125 402.875 42.8438L391.625 54.4219C396.469 57.2031 400.891 58.5938 404.891 58.5938ZM397.484 43.6875L406.578 34.3125C401.141 32.8438 397.5 32.1094 395.656 32.1094C393.812 32.1094 392.781 32.2969 392.562 32.6719C392.375 33.0156 392.281 33.3438 392.281 33.6562C392.281 35.4375 394.016 38.7812 397.484 43.6875Z" fill="#1C1C19"/>
</svg>
