<svg width="667" height="305" viewBox="0 0 667 305" fill="none" xmlns="http://www.w3.org/2000/svg">
<path d="M146.328 5.39456V13.6939C144.201 16.4603 141.929 21.8549 139.512 29.8775C137.095 37.9002 135.016 50.3492 133.276 67.2245L108.187 299.605C107.22 299.329 106.205 299.19 105.141 299.19C104.078 298.914 102.966 298.776 101.806 298.776C100.839 298.776 99.7756 298.914 98.6154 299.19C97.5519 299.19 96.5367 299.329 95.5699 299.605L65.1152 34.4422C64.245 26.6961 63.1332 21.4399 61.7797 18.6735C60.5228 15.6304 59.0726 13.9705 57.429 13.6939V5.39456C60.4261 5.6712 63.955 5.94784 68.0156 6.22448C72.0763 6.50112 76.1852 6.63944 80.3425 6.63944C84.6932 6.63944 88.8022 6.50112 92.6695 6.22448C96.5367 5.94784 99.6789 5.6712 102.096 5.39456V13.6939C99.0988 13.9705 96.7784 14.9388 95.1349 16.5986C93.4913 18.2585 92.5245 21.5782 92.2344 26.5578C92.041 31.2608 92.5245 38.5918 93.6846 48.551L113.843 224.912L110.072 246.075L125.59 104.571C128.103 81.8866 129.312 64.0431 129.215 51.0408C129.119 37.7619 127.958 28.356 125.735 22.8231C123.608 17.0136 120.562 13.9705 116.598 13.6939V5.39456C120.175 5.6712 123.366 5.94784 126.17 6.22448C129.07 6.50112 132.067 6.63944 135.161 6.63944C137.191 6.63944 139.173 6.50112 141.107 6.22448C143.137 5.94784 144.878 5.6712 146.328 5.39456ZM42.2016 5.39456V13.6939C40.3646 14.5238 39.1078 16.7369 38.431 20.3333C37.7542 23.9297 37.5125 28.356 37.7059 33.6122C37.9959 38.5918 38.431 43.5714 39.0111 48.551L60.9095 229.061L56.9939 245.245L74.9767 100.422L77.007 112.041L54.5285 299.605C53.5617 299.329 52.4982 299.19 51.338 299.19C50.2745 298.914 49.211 298.776 48.1475 298.776C47.084 298.776 46.0205 298.914 44.957 299.19C43.8935 299.19 42.8784 299.329 41.9116 299.605L8.84638 40.2517C7.58952 30.2925 6.13929 23.5147 4.4957 19.9184C2.85211 16.0453 1.35354 13.9705 0 13.6939V5.39456C3.09382 5.6712 6.81607 5.94784 11.1667 6.22448C15.5174 6.50112 19.6747 6.63944 23.6387 6.63944C27.6026 6.63944 31.1799 6.50112 34.3704 6.22448C37.5609 5.94784 40.1713 5.6712 42.2016 5.39456Z" fill="#1C1C19"/>
<path d="M229.173 5.39456C228.786 18.3968 228.496 30.9841 228.303 43.1564C228.206 55.3288 228.158 64.5964 228.158 70.9592C228.158 76.4921 228.206 81.8866 228.303 87.1428C228.4 92.3991 228.496 96.6871 228.593 100.007H225.258C224.194 78.4286 222.454 61.415 220.037 48.966C217.716 36.517 214.816 27.8027 211.335 22.8231C207.952 17.5669 204.181 14.9388 200.024 14.9388H196.108C193.498 14.9388 191.467 15.6304 190.017 17.0136C188.664 18.1202 187.745 20.61 187.262 24.483C186.875 28.356 186.682 34.4422 186.682 42.7415V261.844C186.682 269.866 186.875 275.952 187.262 280.102C187.745 283.975 188.664 286.603 190.017 287.986C191.467 289.093 193.498 289.646 196.108 289.646H202.054C205.825 289.646 209.402 286.88 212.786 281.347C216.266 275.537 219.36 265.855 222.067 252.299C224.774 238.467 226.804 219.794 228.158 196.279H231.494C231.204 205.685 231.058 217.857 231.058 232.796C231.058 239.435 231.107 248.841 231.204 261.014C231.3 273.186 231.59 285.912 232.074 299.19C227.143 298.637 221.584 298.361 215.396 298.361C209.208 298.084 203.698 297.946 198.863 297.946C196.35 297.946 193.159 297.946 189.292 297.946C185.425 297.946 181.219 298.084 176.675 298.361C172.131 298.361 167.539 298.499 162.898 298.776C158.257 298.776 153.906 298.914 149.846 299.19V290.891C152.843 290.338 155.067 289.231 156.517 287.571C158.064 285.912 159.079 282.592 159.562 277.612C160.142 272.633 160.432 265.163 160.432 255.204V49.3809C160.432 39.1451 160.142 31.6757 159.562 26.9728C159.079 21.9932 158.064 18.6735 156.517 17.0136C155.067 15.0771 152.843 13.9705 149.846 13.6939V5.39456C154.003 5.6712 158.354 5.94784 162.898 6.22448C167.539 6.22448 172.083 6.3628 176.53 6.63944C181.074 6.63944 185.28 6.63944 189.147 6.63944C193.111 6.63944 196.35 6.63944 198.863 6.63944C203.311 6.63944 208.338 6.63944 213.946 6.63944C219.65 6.3628 224.726 5.94784 229.173 5.39456ZM207.275 147.313C207.275 147.313 207.275 148.696 207.275 151.463C207.275 154.229 207.275 155.612 207.275 155.612H182.331C182.331 155.612 182.331 154.229 182.331 151.463C182.331 148.696 182.331 147.313 182.331 147.313H207.275ZM211.48 92.5374C211.094 108.306 210.9 120.34 210.9 128.639C210.997 136.939 211.045 144.546 211.045 151.463C211.045 158.379 211.094 165.986 211.19 174.286C211.287 182.585 211.529 194.619 211.915 210.388H208.58C208.097 200.429 207.081 191.299 205.535 183C203.988 174.701 201.909 168.061 199.299 163.082C196.688 158.102 193.498 155.612 189.727 155.612V147.313C192.531 147.313 194.996 145.653 197.123 142.333C199.25 138.737 201.039 134.172 202.489 128.639C204.036 123.107 205.293 117.159 206.26 110.796C207.226 104.433 207.855 98.3469 208.145 92.5374H211.48Z" fill="#1C1C19"/>
<path d="M242.893 5.39456C245.503 5.6712 248.984 5.94784 253.334 6.22448C257.685 6.50112 262.036 6.63944 266.386 6.63944C271.124 6.63944 275.668 6.50112 280.018 6.22448C284.466 5.94784 287.608 5.80952 289.445 5.80952C302.013 5.80952 311.392 11.8957 317.579 24.068C323.864 36.2404 327.006 51.8707 327.006 70.9592C327.006 80.6417 325.894 90.6009 323.67 100.837C321.446 110.796 318.014 119.787 313.374 127.81C308.83 135.556 302.98 140.95 295.826 143.993V144.823C305.301 146.483 312.842 151.186 318.449 158.932C324.154 166.401 328.263 175.392 330.776 185.905C333.29 196.417 334.547 207.345 334.547 218.687C334.547 236.669 332.855 251.608 329.471 263.503C326.184 275.399 321.398 284.39 315.114 290.476C308.926 296.286 301.482 299.19 292.78 299.19C290.46 299.19 287.076 299.052 282.629 298.776C278.181 298.222 272.864 297.946 266.676 297.946C262.132 297.946 257.685 298.084 253.334 298.361C248.984 298.361 245.503 298.637 242.893 299.19V290.891C245.89 290.338 248.113 289.231 249.564 287.571C251.111 285.912 252.126 282.592 252.609 277.612C253.189 272.633 253.479 265.163 253.479 255.204V49.3809C253.479 39.1451 253.189 31.6757 252.609 26.9728C252.126 21.9932 251.111 18.6735 249.564 17.0136C248.113 15.0771 245.89 13.9705 242.893 13.6939V5.39456ZM288.14 13.6939C284.659 13.6939 282.387 16.0454 281.324 20.7483C280.26 25.4512 279.728 34.9955 279.728 49.3809V255.204C279.728 264.887 279.97 272.218 280.453 277.197C281.034 282.177 282 285.497 283.354 287.156C284.707 288.816 286.738 289.646 289.445 289.646C295.632 289.646 300.128 283.422 302.932 270.973C305.832 258.247 307.283 240.265 307.283 217.027C307.283 195.726 305.446 179.265 301.772 167.646C298.195 156.027 292.2 150.218 283.789 150.218H272.332C272.332 150.218 272.332 149.111 272.332 146.898C272.332 144.408 272.332 143.163 272.332 143.163H284.804C288.961 143.163 292.152 140.12 294.376 134.034C296.599 127.671 298.146 119.372 299.016 109.136C299.886 98.6236 300.322 87.4195 300.322 75.5238C300.322 55.0521 299.355 39.6984 297.421 29.4626C295.584 18.9501 292.49 13.6939 288.14 13.6939Z" fill="#1C1C19"/>
<path d="M380.733 0C386.727 0 391.368 1.79819 394.655 5.39456C397.943 8.71428 400.746 12.3106 403.067 16.1837C404.227 18.1202 405.145 19.6417 405.822 20.7483C406.596 21.5782 407.321 21.9932 407.997 21.9932C408.964 21.9932 409.641 20.4716 410.028 17.4286C410.511 14.3855 410.898 9.82085 411.188 3.7347H414.523C414.427 9.26757 414.282 15.7687 414.088 23.2381C413.992 30.7075 413.895 40.6667 413.798 53.1156C413.798 65.288 413.798 81.4717 413.798 101.667H410.463C410.076 86.7279 408.868 72.3424 406.837 58.5102C404.807 44.678 402.003 33.1973 398.426 24.068C394.945 14.9388 390.643 10.3741 385.519 10.3741C381.072 10.3741 377.398 13.9705 374.497 21.1633C371.597 28.0794 370.147 38.0385 370.147 51.0408C370.147 61.5533 371.065 70.6825 372.902 78.4286C374.739 85.898 377.494 93.5057 381.168 101.252C384.939 108.998 389.676 118.542 395.38 129.884C399.925 138.46 403.985 147.036 407.562 155.612C411.14 164.188 413.992 173.871 416.119 184.66C418.342 195.449 419.454 208.451 419.454 223.667C419.454 241.925 417.714 257.141 414.233 269.313C410.753 281.209 406.161 290.2 400.456 296.286C394.752 302.095 388.516 305 381.748 305C375.464 305 370.437 303.34 366.666 300.02C362.992 296.701 359.85 293.243 357.24 289.646C355.113 285.773 353.469 283.837 352.309 283.837C351.342 283.837 350.617 285.358 350.133 288.401C349.747 291.444 349.408 296.009 349.118 302.095H345.783C345.976 295.179 346.073 287.156 346.073 278.027C346.169 268.621 346.218 256.587 346.218 241.925C346.314 227.263 346.363 208.59 346.363 185.905H349.698C350.085 204.717 351.149 222.283 352.889 238.605C354.726 254.927 357.481 268.206 361.155 278.442C364.926 288.401 369.905 293.381 376.092 293.381C379.573 293.381 382.618 291.721 385.229 288.401C387.839 285.082 389.918 280.24 391.465 273.878C393.012 267.238 393.785 259.215 393.785 249.81C393.785 238.19 392.867 228.093 391.03 219.517C389.193 210.941 386.679 202.918 383.489 195.449C380.298 187.703 376.576 179.957 372.322 172.211C367.778 163.635 363.524 154.921 359.56 146.068C355.596 137.215 352.405 127.395 349.988 116.605C347.668 105.54 346.508 92.2608 346.508 76.7687C346.508 59.0635 348.103 44.5397 351.294 33.1973C354.484 21.8549 358.69 13.5555 363.911 8.29931C369.228 2.76644 374.836 0 380.733 0Z" fill="#1C1C19"/>
<path d="M476.833 5.39456V13.6939C473.836 13.9705 471.564 15.0771 470.017 17.0136C468.47 18.6735 467.455 21.9932 466.972 26.9728C466.488 31.6757 466.247 39.1451 466.247 49.3809V255.204C466.247 265.163 466.488 272.633 466.972 277.612C467.552 282.592 468.567 285.912 470.017 287.571C471.564 289.231 473.836 290.338 476.833 290.891V299.19C474.126 298.637 470.646 298.361 466.392 298.361C462.234 298.084 458.029 297.946 453.775 297.946C448.844 297.946 444.203 298.084 439.853 298.361C435.502 298.361 432.021 298.637 429.411 299.19V290.891C432.408 290.338 434.632 289.231 436.082 287.571C437.629 285.912 438.644 282.592 439.127 277.612C439.708 272.633 439.998 265.163 439.998 255.204V49.3809C439.998 39.1451 439.708 31.6757 439.127 26.9728C438.644 21.9932 437.629 18.6735 436.082 17.0136C434.632 15.0771 432.408 13.9705 429.411 13.6939V5.39456C432.021 5.6712 435.502 5.94784 439.853 6.22448C444.203 6.50112 448.844 6.63944 453.775 6.63944C458.029 6.63944 462.234 6.50112 466.392 6.22448C470.646 5.94784 474.126 5.6712 476.833 5.39456Z" fill="#1C1C19"/>
<path d="M576.851 5.39456C576.465 20.61 576.175 35.2721 575.981 49.3809C575.885 63.4898 575.836 74.2789 575.836 81.7483C575.836 87.8345 575.885 93.5057 575.981 98.7619C576.078 104.018 576.175 108.583 576.271 112.456H572.936C571.002 87.8345 568.682 68.4694 565.975 54.3605C563.268 39.9751 560.174 29.8775 556.693 24.068C553.309 17.9818 549.635 14.9388 545.672 14.9388H543.931V251.884C543.931 263.227 544.318 271.664 545.091 277.197C545.962 282.73 547.508 286.465 549.732 288.401C552.053 290.061 555.388 290.891 559.739 290.891V299.19C556.548 298.914 552.246 298.637 546.832 298.361C541.514 298.084 535.955 297.946 530.154 297.946C524.45 297.946 519.084 298.084 514.057 298.361C509.029 298.637 504.968 298.914 501.875 299.19V290.891C506.225 290.891 509.561 290.061 511.881 288.401C514.202 286.465 515.749 282.73 516.522 277.197C517.295 271.664 517.682 263.227 517.682 251.884V14.9388H516.087C512.026 14.9388 508.304 17.9818 504.92 24.068C501.536 29.8775 498.491 39.8367 495.784 53.9456C493.077 68.0544 490.708 87.5578 488.678 112.456H485.342C485.535 108.583 485.632 104.018 485.632 98.7619C485.729 93.5057 485.777 87.8345 485.777 81.7483C485.777 74.2789 485.681 63.4898 485.487 49.3809C485.39 35.2721 485.149 20.61 484.762 5.39456C489.306 5.6712 494.285 5.94784 499.699 6.22448C505.21 6.50112 510.673 6.63944 516.087 6.63944C521.501 6.63944 526.432 6.63944 530.879 6.63944C535.327 6.63944 540.257 6.63944 545.672 6.63944C551.182 6.63944 556.645 6.50112 562.059 6.22448C567.473 5.94784 572.404 5.6712 576.851 5.39456Z" fill="#1C1C19"/>
<path d="M664.1 5.39456C663.713 18.3968 663.423 30.9841 663.229 43.1564C663.133 55.3288 663.084 64.5964 663.084 70.9592C663.084 76.4921 663.133 81.8866 663.229 87.1428C663.326 92.3991 663.423 96.6871 663.519 100.007H660.184C659.12 78.4286 657.38 61.415 654.963 48.966C652.643 36.517 649.742 27.8027 646.262 22.8231C642.878 17.5669 639.107 14.9388 634.95 14.9388H631.034C628.424 14.9388 626.394 15.6304 624.943 17.0136C623.59 18.1202 622.671 20.61 622.188 24.483C621.801 28.356 621.608 34.4422 621.608 42.7415V261.844C621.608 269.866 621.801 275.952 622.188 280.102C622.671 283.975 623.59 286.603 624.943 287.986C626.394 289.093 628.424 289.646 631.034 289.646H636.98C640.751 289.646 644.328 286.88 647.712 281.347C651.193 275.537 654.286 265.855 656.993 252.299C659.701 238.467 661.731 219.794 663.084 196.279H666.42C666.13 205.685 665.985 217.857 665.985 232.796C665.985 239.435 666.033 248.841 666.13 261.014C666.227 273.186 666.517 285.912 667 299.19C662.069 298.637 656.51 298.361 650.322 298.361C644.135 298.084 638.624 297.946 633.79 297.946C631.276 297.946 628.086 297.946 624.218 297.946C620.351 297.946 616.145 298.084 611.601 298.361C607.057 298.361 602.465 298.499 597.824 298.776C593.183 298.776 588.833 298.914 584.772 299.19V290.891C587.769 290.338 589.993 289.231 591.443 287.571C592.99 285.912 594.005 282.592 594.489 277.612C595.069 272.633 595.359 265.163 595.359 255.204V49.3809C595.359 39.1451 595.069 31.6757 594.489 26.9728C594.005 21.9932 592.99 18.6735 591.443 17.0136C589.993 15.0771 587.769 13.9705 584.772 13.6939V5.39456C588.929 5.6712 593.28 5.94784 597.824 6.22448C602.465 6.22448 607.009 6.3628 611.456 6.63944C616 6.63944 620.206 6.63944 624.073 6.63944C628.037 6.63944 631.276 6.63944 633.79 6.63944C638.237 6.63944 643.265 6.63944 648.872 6.63944C654.576 6.3628 659.652 5.94784 664.1 5.39456ZM642.201 147.313C642.201 147.313 642.201 148.696 642.201 151.463C642.201 154.229 642.201 155.612 642.201 155.612H617.257C617.257 155.612 617.257 154.229 617.257 151.463C617.257 148.696 617.257 147.313 617.257 147.313H642.201ZM646.407 92.5374C646.02 108.306 645.827 120.34 645.827 128.639C645.923 136.939 645.972 144.546 645.972 151.463C645.972 158.379 646.02 165.986 646.117 174.286C646.213 182.585 646.455 194.619 646.842 210.388H643.506C643.023 200.429 642.008 191.299 640.461 183C638.914 174.701 636.835 168.061 634.225 163.082C631.614 158.102 628.424 155.612 624.653 155.612V147.313C627.457 147.313 629.923 145.653 632.05 142.333C634.177 138.737 635.965 134.172 637.415 128.639C638.962 123.107 640.219 117.159 641.186 110.796C642.153 104.433 642.781 98.3469 643.071 92.5374H646.407Z" fill="#1C1C19"/>
</svg>
